<svg xmlns="http://www.w3.org/2000/svg" xmlns:xlink="http://www.w3.org/1999/xlink" width="23" height="31" viewBox="0 0 23 31">
    <defs>
        <path id="a" d="M10.364 28.3S.66 17.232.66 9.704C.66 4.346 5.005 0 10.364 0c5.36 0 9.705 4.346 9.705 9.705 0 7.71-9.705 18.594-9.705 18.594z"/>
        <path id="b" d="M5.496.014H0V6.27h10.99V.014z"/>
    </defs>
    <g fill="none" fill-rule="evenodd">
        <g transform="translate(1 1)">
            <ellipse cx="10.5" cy="27.5" fill="#F67F14" fill-opacity=".2" rx="4.5" ry="1.5"/>
            <use fill="#F67F14" xlink:href="#a"/>
            <path stroke="#FFF" d="M9.988 28.629a60.389 60.389 0 0 1-1.533-1.867 65.969 65.969 0 0 1-3.362-4.663c-1.426-2.18-2.608-4.304-3.461-6.312C.676 13.537.159 11.495.159 9.705.16 4.07 4.73-.5 10.364-.5 16-.5 20.57 4.07 20.57 9.705c0 1.715-.453 3.637-1.297 5.733-.862 2.14-2.108 4.407-3.638 6.73a63.27 63.27 0 0 1-4.471 5.972c-.202.238-.347.404-.426.492l-.376.422-.373-.425z"/>
            <path fill="#FFF" d="M17.637 9.705a7.272 7.272 0 0 1-7.272 7.272 7.272 7.272 0 1 1 0-14.544 7.272 7.272 0 0 1 7.272 7.272"/>
        </g>
        <g transform="translate(6 8)">
            <mask id="c" fill="#fff">
                <use xlink:href="#b"/>
            </mask>
            <path fill="#F67F14" d="M5.495 4.22l-3.278-.991v1.655c0 .764 1.468 1.385 3.28 1.385 1.81 0 3.279-.62 3.279-1.385l-.002-.018V3.229l-3.279.99z" mask="url(#c)"/>
            <path fill="#F67F14" d="M0 2.09l1.171.411.1-.21.43-.036.062.063-.37.086-.053.156S.506 4.272.628 5.11c0 0 .52.304 1.04 0l.14-2.29v-.19l.774-.172-.055.132-.577.185.267.093 3.278.99 3.279-.99 2.216-.778L5.495.014 0 2.09z" mask="url(#c)"/>
        </g>
    </g>
</svg>
