<svg xmlns="http://www.w3.org/2000/svg" xmlns:xlink="http://www.w3.org/1999/xlink" width="23" height="31" viewBox="0 0 23 31">
    <defs>
        <path id="a" d="M10.364 28.3S.66 17.232.66 9.704C.66 4.346 5.005 0 10.364 0c5.36 0 9.705 4.346 9.705 9.705 0 7.71-9.705 18.594-9.705 18.594z"/>
        <path id="b" d="M8.178 0H0v3.645h8.178V0z"/>
    </defs>
    <g fill="none" fill-rule="evenodd">
        <g transform="translate(1 1)">
            <ellipse cx="10.5" cy="27.5" fill="#0355A7" fill-opacity=".2" rx="4.5" ry="1.5"/>
            <use fill="#0355A7" xlink:href="#a"/>
            <path stroke="#FFF" d="M9.988 28.629a60.389 60.389 0 0 1-1.533-1.867 65.969 65.969 0 0 1-3.362-4.663c-1.426-2.18-2.608-4.304-3.461-6.312C.676 13.537.159 11.495.159 9.705.16 4.07 4.73-.5 10.364-.5 16-.5 20.57 4.07 20.57 9.705c0 1.715-.453 3.637-1.297 5.733-.862 2.14-2.108 4.407-3.638 6.73a63.27 63.27 0 0 1-4.471 5.972c-.202.238-.347.404-.426.492l-.376.422-.373-.425z"/>
            <path fill="#FFF" d="M17.637 9.705a7.272 7.272 0 0 1-7.272 7.272 7.272 7.272 0 1 1 0-14.544 7.272 7.272 0 0 1 7.272 7.272"/>
        </g>
        <g transform="translate(7 6)">
            <mask id="c" fill="#fff">
                <use xlink:href="#b"/>
            </mask>
            <path fill="#0355A7" d="M8.166 1.741a.152.152 0 0 0-.14-.091H5.965l.362-.928L7.767.294A.15.15 0 1 0 7.68.006l-1.514.45a.151.151 0 0 0-.1.093L5.639 1.65H2.413A1.208 1.208 0 0 0 1.212.6C.544.6 0 1.138 0 1.8a1.207 1.207 0 0 0 1.837 1.023l.792.822.185-.09c.133-.05.244-.12.345-.214A1.1 1.1 0 0 1 3.996 3a.911.911 0 0 1 .672.357c.113.17.276.221.395.237.248.032.526-.064.742-.257.247-.236.594-.362.929-.331h.34l1.062-1.103a.149.149 0 0 0 .03-.163zm-6.543.86A.905.905 0 0 1 .303 1.8c0-.495.407-.899.909-.899.45 0 .823.325.896.75H1.06a.152.152 0 0 0-.14.091.149.149 0 0 0 .03.163l.673.698z" mask="url(#c)"/>
        </g>
        <path fill="#0355A7" d="M13.012 9.558c-.286.254-.654.377-.988.334a.835.835 0 0 1-.603-.36.608.608 0 0 0-.443-.23.803.803 0 0 0-.607.253c-.135.125-.28.216-.436.275l-.087.042.865.898c.207.215.334.488.367.78h.927c.033-.292.16-.565.367-.78l1.41-1.464h-.064a.911.911 0 0 0-.708.252M13.417 14.71l-.656-.26a1.197 1.197 0 0 1-.763-1.115V11.85h-.909v1.485c0 .494-.3.932-.763 1.116l-.656.26a.15.15 0 0 0 .056.289h3.635a.15.15 0 1 0 .056-.29"/>
    </g>
</svg>
