<svg xmlns="http://www.w3.org/2000/svg" xmlns:xlink="http://www.w3.org/1999/xlink" viewBox="0 0 189.865 306.293">
  <defs>
    <style>
      .cls-1 {
        fill: #618b3d;
      }

      .cls-2, .cls-5 {
        fill: #e50000;
      }

      .cls-3, .cls-4 {
        fill: red;
      }

      .cls-10, .cls-3, .cls-5, .cls-9 {
        stroke: #000;
      }

      .cls-10, .cls-11, .cls-16, .cls-28, .cls-3, .cls-5, .cls-9 {
        stroke-miterlimit: 10;
      }

      .cls-10, .cls-16, .cls-3, .cls-5, .cls-9 {
        stroke-width: 0.25px;
      }

      .cls-6 {
        fill: #999;
      }

      .cls-7 {
        fill: #26120b;
      }

      .cls-8 {
        fill: #eeb289;
      }

      .cls-9 {
        fill: #9baaab;
      }

      .cls-10 {
        fill: #d60000;
      }

      .cls-11, .cls-13 {
        fill: #f8bc90;
      }

      .cls-11 {
        stroke: #26120b;
        stroke-width: 0.1px;
      }

      .cls-12 {
        fill: #ccc;
      }

      .cls-14 {
        fill: #d67d56;
      }

      .cls-15 {
        fill: #eda57e;
      }

      .cls-16, .cls-28 {
        fill: none;
      }

      .cls-16 {
        stroke: #eda57e;
      }

      .cls-17 {
        fill: #e0a47c;
      }

      .cls-18 {
        fill: #dbdbdb;
      }

      .cls-19 {
        fill: #f7c4a1;
      }

      .cls-20 {
        fill: #afafaf;
      }

      .cls-21, .cls-26 {
        opacity: 0.2;
      }

      .cls-22 {
        opacity: 0.6;
        fill: url(#linear-gradient);
      }

      .cls-23 {
        fill: #c6c5c4;
      }

      .cls-24 {
        fill: #fff;
      }

      .cls-25 {
        fill: url(#linear-gradient-2);
      }

      .cls-27 {
        fill: #070707;
      }

      .cls-28 {
        stroke: #fff;
        stroke-width: 0.5px;
      }

      .cls-29 {
        fill: #231f20;
      }

      .cls-30 {
        fill: #404041;
      }
    </style>
    <linearGradient id="linear-gradient" x1="0.072" y1="0.279" x2="1.12" y2="0.786" gradientUnits="objectBoundingBox">
      <stop offset="0.057" stop-color="#4c2b14"/>
      <stop offset="0.507" stop-color="#26120b"/>
    </linearGradient>
    <linearGradient id="linear-gradient-2" x1="Infinity" y1="-Infinity" x2="Infinity" y2="-Infinity" gradientUnits="objectBoundingBox">
      <stop offset="0.177" stop-color="#24aec0"/>
      <stop offset="1" stop-color="#89d3e4"/>
    </linearGradient>
  </defs>
  <g id="Group_14" data-name="Group 14" transform="translate(0.035 -0.122)">
    <path id="Path_1" data-name="Path 1" class="cls-1" d="M86.7,197.7c0,1.9-4.1,3.4-9.1,3.4s-9.1-1.5-9.1-3.4,4.1-3.4,9.1-3.4C82.7,194.3,86.7,195.8,86.7,197.7Z"/>
    <path id="Path_2" data-name="Path 2" class="cls-2" d="M114,13.7c.5,3.3,2.4,6.8,3.3,10.2.4,1.6.2,3,.6,4.7.4,2,1.6,3.1,2,5.2.5,2.3-1,4.8-.2,7.1.8,2.2,2.1,2.1,2.5,4.6.3,1.8-.7,3.7-.3,5.4.7,3,2.6,1.3,3.5,3.6.8,1.8-1,2.5-.5,4.5.5,1.8,2,.8,2.1,3.8.1,2.7-1.4,2.8.6,5,1.3,1.4,3.8,0,2.8,3.5-.5,1.7-3.6,1.3-2.8,3.9.5,1.7,4.1,1.5,4.8,2.7,2.9,4.5-5.7,8.2-1.1,11.8,2.1,1.6,5.7.4,2.3,4.3-1.4,1.7-3.7.8-3.7,4.3,0,2.1,3.3,3.8,1,6.4-1.1,1.2-5.4.2-6.8.3,1.1,1.4,5.4,4.8,1.4,5.8-1.2.3-3.3-1.8-4.4-2.4a16.3,16.3,0,0,0-4.8-1.3,12.862,12.862,0,0,0-7.7,1.2c-1.6.6-10,3.3-9-1,3.1-.1,7.3,1.2,4.4-3.1-.6-.8-3.6-2.8-3.6-3.6-.1-2.8,1.6-.6,2.6-1.6,3.8-3.5-.4-3.3-1.7-6.6-1.9-4.6,2.9-3,3.7-5.1-2.3-1.3-7-2.4-6.8-6.4,1.7-.9,6.1,1.5,7.4-.4,1.8-2.8-4.4-7.2-4.7-10.4,1.5-.1,4.7.7,5.9-.5,3.4-3.4-2.4-5.2-3.1-7.8-.6-2.5,3.1-2.9,3.9-5.9.4-1.5-.2-3.1.4-4.7.5-1.3-.6-3.5.2-4.9,3.2-5.4,1.4-10.9,3.4-16.6,1.5-4.4,2.7-11,2.2-16h.2Z"/>
    <path id="Path_3" data-name="Path 3" class="cls-3" d="M187.7,280.8a5.862,5.862,0,0,0-3.3-1.1,54.935,54.935,0,0,1-10.4,1.5h0s-.8,7.6.6,9.5h0C180.4,288.2,185.9,284.9,187.7,280.8Z"/>
    <g id="Group_1" data-name="Group 1">
      <path id="Path_4" data-name="Path 4" class="cls-4" d="M137.8,58.6s-4.4-5.3-9.1-6.5c-.3,4.6-3.2,3.8-3.2,3.8-8.4-.8-16.3-13.3-16.3-13.3a2.751,2.751,0,0,1-1.5.8S96,44.9,92,47.5a14.05,14.05,0,0,0-8.6,3.6s-7.1,4.6-12.2,8.6A175.013,175.013,0,0,0,53.3,70.4C58.4,74.1,63.1,82,63.1,82c3.6-.3,16.5-5.3,16.5-5.3v.2c2.8-.8,6.7-2.1,7.6-2.4,0,0,2,21,.1,27.8,0,0-2.5,30.3-7.5,33.9A62.054,62.054,0,0,0,95,139.6c4.9-.8,13.6,1.4,13.6,1.4,3.2,3,9.8,5,9.8,5s4.3-27.1,8.6-35c1.2-2.8,5.7-15.1,5.7-15.1l2.1-3.8c2.4-4.9,5.6-13.7,2.6-22.1C137.5,70,140.7,61.8,137.8,58.6Z"/>
      <path id="Path_5" data-name="Path 5" class="cls-2" d="M137.8,58.6a30.412,30.412,0,0,0-4.1-3.9,12.036,12.036,0,0,0-2.4-1.5c-.4-.2-.8-.4-1.3-.6a6.468,6.468,0,0,0-1.3-.4h0l-.1.7c0,.2-.1.5-.1.7a3.1,3.1,0,0,1-.6,1.3c-.1.1-.1.2-.2.3s-.2.2-.2.3a2.092,2.092,0,0,1-.6.4,3.178,3.178,0,0,1-1.4.2h0a12.029,12.029,0,0,1-5.1-1.8,22.891,22.891,0,0,1-4.3-3.2,34.123,34.123,0,0,1-3.7-3.9,43.542,43.542,0,0,1-3.2-4.3h0a1.794,1.794,0,0,1-.7.5,6.89,6.89,0,0,1-.8.3h0c-2.7.4-5.4.8-8,1.4-1.3.3-2.6.6-3.9,1a10.663,10.663,0,0,0-1.9.7l-.9.4-1,.3h0a14.729,14.729,0,0,0-4.6,1.1,21.16,21.16,0,0,0-2.1,1.1,6.071,6.071,0,0,0-1,.7c-.3.2-.6.5-.9.7h0c-1,.7-2.1,1.4-3.1,2.1s-2,1.4-3.1,2.1c-1,.7-2,1.4-3,2.2l-3,2.3h0c-3.1,1.6-6.1,3.3-9.1,5.1-1.5.9-3,1.8-4.4,2.7-1.5.9-2.9,1.9-4.3,2.9h0a30.665,30.665,0,0,1,5.4,5.4,63.738,63.738,0,0,1,4.4,6.2h0c.4-.1.7-.1,1.1-.2s.7-.1,1.1-.2l2.1-.6c1.4-.4,2.8-.9,4.1-1.3,2.7-.9,5.4-2,8.1-3h.1v.3h-.1l7.6-2.4h.1v.1c.4,4.6.7,9.3.8,13.9.1,2.3.1,4.7,0,7a31.742,31.742,0,0,1-.8,6.9h0c-.5,5.8-1.2,11.6-2.2,17.4a81.978,81.978,0,0,1-1.8,8.6c-.4,1.4-.8,2.8-1.3,4.2-.3.7-.6,1.4-.9,2a5.8,5.8,0,0,1-1.4,1.7v-.1a59.225,59.225,0,0,0,7.5,2.2c2.5.5,5.1.9,7.7,1.2h0a9.7,9.7,0,0,1,1.7-.1h1.7c1.1,0,2.3.2,3.4.3,2.3.3,4.5.7,6.8,1.2h0a20.879,20.879,0,0,0,4.7,3,32.812,32.812,0,0,0,5.2,2h0c1-5.9,2.1-11.9,3.4-17.8.7-2.9,1.4-5.9,2.2-8.8.4-1.5.8-2.9,1.3-4.3a36.942,36.942,0,0,1,1.7-4.2h0l1.5-3.7,1.4-3.8,2.8-7.6h0l1.7-3a10.929,10.929,0,0,0,.8-1.5c.2-.5.5-1,.7-1.6a35.261,35.261,0,0,0,2.1-6.5c.2-1.1.5-2.2.6-3.3a9.7,9.7,0,0,0,.1-1.7V76.7c0-.6-.1-1.1-.1-1.7s-.2-1.1-.2-1.7a10.462,10.462,0,0,0-.4-1.7l-.5-1.6h0a30,30,0,0,0,1.5-5.7,10.056,10.056,0,0,0,0-3A6.19,6.19,0,0,0,137.8,58.6Zm0,0a4.607,4.607,0,0,1,1.1,2.7,15.037,15.037,0,0,1,0,3,26.406,26.406,0,0,1-1.4,5.7h0l.5,1.6c.1.6.3,1.1.4,1.7a9.852,9.852,0,0,1,.2,1.7c0,.6.1,1.1.1,1.7v1.7c0,.6-.1,1.1-.1,1.7a19.094,19.094,0,0,1-.6,3.3,37.885,37.885,0,0,1-2.1,6.5c-.2.5-.4,1-.7,1.6a10.929,10.929,0,0,1-.8,1.5l-1.7,3h0l-2.8,7.6-1.4,3.8L127,111h0a26.318,26.318,0,0,0-1.7,4.2c-.5,1.4-.9,2.9-1.3,4.3-.8,2.9-1.5,5.8-2.2,8.8-1.3,5.9-2.4,11.8-3.4,17.8h0a32.811,32.811,0,0,1-5.2-2,17.889,17.889,0,0,1-4.7-3h0c-2.2-.5-4.5-.9-6.8-1.2-1.1-.1-2.3-.3-3.4-.3H96.6c-.6,0-1.1.1-1.7.1h0a49.376,49.376,0,0,1-7.7-1.2,40.185,40.185,0,0,1-7.5-2.2h0a4.31,4.31,0,0,0,1.3-1.7,12.147,12.147,0,0,0,.9-2c.5-1.4.9-2.8,1.3-4.2.7-2.8,1.3-5.7,1.8-8.6,1-5.8,1.7-11.6,2.2-17.4h0a32.475,32.475,0,0,0,.8-6.9c.1-2.3.1-4.7,0-7-.1-4.7-.4-9.3-.8-13.9h.1L79.6,77h-.1v-.3h.1l-8.1,3c-1.4.5-2.7.9-4.1,1.3l-2.1.6a3.6,3.6,0,0,1-1.1.2c-.4.1-.7.1-1.1.2h0a46.138,46.138,0,0,0-4.4-6.2,27.625,27.625,0,0,0-5.4-5.4h0c1.4-1,2.9-2,4.3-2.9,1.5-.9,2.9-1.8,4.4-2.7,3-1.8,6-3.5,9.1-5.1h0l3-2.3c1-.8,2-1.5,3-2.2s2-1.4,3.1-2.1c1-.7,2.1-1.4,3.1-2.1h0c.3-.2.6-.5.9-.7a8.65,8.65,0,0,1,1-.7,21.159,21.159,0,0,1,2.1-1.1,14.729,14.729,0,0,1,4.6-1.1h0l.9-.5.9-.4c.6-.2,1.3-.5,1.9-.7,1.3-.4,2.6-.7,3.9-1a74.458,74.458,0,0,1,8-1.4h0c.3-.1.5-.2.8-.3a3.039,3.039,0,0,0,.7-.5h0c1,1.5,2.1,2.9,3.2,4.3a45.864,45.864,0,0,0,3.7,3.9,22.891,22.891,0,0,0,4.3,3.2,12.972,12.972,0,0,0,5.1,1.8h0a3.211,3.211,0,0,0,1.4-.1,2.092,2.092,0,0,0,.6-.4c.1-.1.2-.2.2-.3.1-.1.1-.2.2-.3a7.54,7.54,0,0,0,.6-1.3c0-.2.1-.5.1-.7l.1-.7h0c.5.1.9.3,1.3.4.4.2.9.4,1.3.6l2.4,1.5A24.1,24.1,0,0,1,137.8,58.6Z"/>
    </g>
    <g id="Group_2" data-name="Group 2">
      <path id="Path_6" data-name="Path 6" class="cls-4" d="M87.2,102.4c1.9-6.8-.1-27.8-.1-27.8-.9.3-4.8,1.5-7.6,2.4.1,4.5,1.8,30.7,1.8,30.7-.5,8.4-1.8,16-1.8,16a43.212,43.212,0,0,1-4.2,10.4,20.109,20.109,0,0,0,4.4,2.2C84.7,132.7,87.2,102.4,87.2,102.4Z"/>
      <path id="Path_7" data-name="Path 7" class="cls-4" d="M87.2,102.4a10.1,10.1,0,0,0,.3-1.7,11.135,11.135,0,0,0,.2-1.7c.1-1.2.2-2.3.2-3.5.1-2.3.1-4.7,0-7-.1-4.7-.4-9.3-.8-13.9h0L79.6,77h0l.8,15.4c.1,2.6.3,5.1.5,7.7l.5,7.7h0l-.8,8c-.1,1.3-.2,2.7-.4,4l-.6,4h0a47.18,47.18,0,0,1-1.8,5.3l-.5,1.3c-.2.4-.4.9-.6,1.3s-.4.9-.6,1.3l-.7,1.2h0l2.1,1.2,2.2,1h0a5.8,5.8,0,0,0,1.4-1.7c.3-.6.6-1.3.9-2,.5-1.4.9-2.8,1.3-4.2.7-2.8,1.3-5.7,1.8-8.6C86,114,86.7,108.2,87.2,102.4Zm0,0c-.5,5.8-1.2,11.6-2.2,17.4a81.979,81.979,0,0,1-1.8,8.6c-.4,1.4-.8,2.8-1.3,4.2-.3.7-.6,1.4-.9,2a5.8,5.8,0,0,1-1.4,1.7h0l-2.3-1-2.1-1.2h0l.7-1.2c.2-.4.4-.8.6-1.3.2-.4.4-.8.6-1.3l.5-1.3a47.182,47.182,0,0,0,1.8-5.3h0l.6-4c.2-1.3.3-2.7.4-4l.8-8h0l-.5-7.7c-.2-2.6-.3-5.1-.5-7.7l-.8-15.4h0L87,74.6h0c.4,4.6.7,9.3.8,13.9.1,2.3.1,4.7,0,7,0,1.2-.1,2.3-.2,3.5a8.807,8.807,0,0,1-.2,1.7A4.953,4.953,0,0,1,87.2,102.4Z"/>
    </g>
    <path id="Path_8" data-name="Path 8" class="cls-5" d="M24.5,277.2h0a77.043,77.043,0,0,1,3.4-13.6h0c-7.5,2.1-17.3-1.6-17.3-1.6h0c.3,1.9.7,3.9.9,6a52.283,52.283,0,0,0,2.9,11.9h0A44.015,44.015,0,0,0,24.5,277.2Z"/>
    <g id="Group_4" data-name="Group 4">
      <path id="Path_9" data-name="Path 9" class="cls-6" d="M78.5,160.2s-5.6,26.1-9.4,33.7l1.3.5s16.6,9.4,19.3,11.9c0,0,10.4-17,13.2-19C100.5,180.9,78.5,160.2,78.5,160.2Z"/>
      <g id="Group_3" data-name="Group 3">
        <path id="Path_10" data-name="Path 10" class="cls-7" d="M78.4,160.2C76,171.4,74,183.6,69,193.9v.1a63.454,63.454,0,0,1,8.1,4.4c4.2,2.4,8.8,4.8,12.4,8,.1.1.2,0,.3-.1,3.8-6.1,7.6-14.4,13.2-19v-.1c-2.5-6-8.3-11.1-12.7-15.6-3.8-3.9-7.7-7.8-11.7-11.5,0,0-.3.1-.2.1,5.4,5.2,10.7,10.4,15.8,16,2.1,2.3,7.6,7,8.2,10.3.4,2.4-4.3,6.8-5.7,8.9-1.4,2-2.7,4.1-4,6.1-.5.8-1.8,4-2.8,4.4-.8.4-6.5-4-7.9-4.8-3.6-2.2-7.5-4-10.9-6.4-.8-.5-1.3-.3-1.5-1.3-.2-1.2,1.7-4.4,2.1-5.7,2.9-9,5-18.3,7-27.5C78.7,160.1,78.4,160.1,78.4,160.2Z"/>
      </g>
    </g>
    <g id="Group_5" data-name="Group 5">
      <path id="Path_11" data-name="Path 11" class="cls-8" d="M70.4,194.4s-2.3,6.9-3.6,8.4c0,0-12.2,3-21.3,11.4,0,0-8.6,8.6-16.5,18.3,0,0-8.6,8.6-10.9,9.1,0,0-2,9.6,8.6,14l.5-1.8S42.9,241.4,51,236c0,0,13.7-8.6,17.5-11.7,0,0,7.4-4.8,10.1-4.6a16.232,16.232,0,0,0,10.9-13.4C87,203.8,70.4,194.4,70.4,194.4Z"/>
      <path id="Path_12" data-name="Path 12" class="cls-7" d="M70.4,194.4c-.5,1.4-1,2.9-1.6,4.3l-.9,2.1-.5,1a8.8,8.8,0,0,0-.6,1h0c-1,.3-2,.6-2.9.9l-1.4.5-1.4.6-1.4.6-1.4.6a13.833,13.833,0,0,0-2.7,1.4l-2.7,1.5-2.6,1.7c-.4.3-.9.6-1.3.9l-1.2,1c-.8.7-1.6,1.3-2.4,1.9-1.4,1.4-2.8,2.9-4.2,4.4s-2.8,3-4.1,4.5L35,225.6l-2,2.3-4,4.7h0c-1.7,1.7-3.4,3.3-5.2,4.9-.9.8-1.8,1.6-2.7,2.3-.5.4-.9.7-1.4,1.1a5.582,5.582,0,0,1-.8.5,2.994,2.994,0,0,1-.8.4l.1-.1a8.129,8.129,0,0,0-.1,2.2,16.352,16.352,0,0,0,.2,2.2,16.554,16.554,0,0,0,.6,2.1l.5,1a8.8,8.8,0,0,1,.6,1l.6.9a2.7,2.7,0,0,0,.7.8l.8.8.9.7.4.3.5.3.9.6c.3.2.7.3,1,.5l1,.5-.2.1.5-1.8h0l5-3.9c1.7-1.3,3.3-2.6,5-3.9l5.1-3.8c1.7-1.3,3.4-2.5,5.2-3.7l2.6-1.8c.9-.6,1.8-1.2,2.7-1.7l5.3-3.4,5.3-3.5c.9-.6,1.7-1.2,2.6-1.8l2.6-1.8h0a47.594,47.594,0,0,1,4.9-2.8c.8-.4,1.7-.8,2.6-1.2a6.468,6.468,0,0,1,1.3-.4,1.7,1.7,0,0,1,.7-.1h.7a9.494,9.494,0,0,0,2.1-.9,10.594,10.594,0,0,0,2-1.2l.9-.7.9-.7.8-.8c.3-.3.5-.6.8-.9a5.5,5.5,0,0,0,.7-.9l.6-.9.5-1c.2-.3.3-.7.5-1,.1-.4.3-.7.4-1.1l.3-1.1a4.253,4.253,0,0,0,.2-1.1l.2-1.1h0l-1.1-.9a8.341,8.341,0,0,0-1.2-.8c-.8-.5-1.6-1.1-2.4-1.6l-4.8-3C77,198.2,73.7,196.3,70.4,194.4Zm0,0c3.3,1.9,6.6,3.8,9.8,5.7l4.8,3c.8.5,1.6,1,2.4,1.6.4.3.8.5,1.2.8l1.1.9h0l-.2,1.1c-.1.4-.1.8-.2,1.1l-.3,1.1c-.1.4-.3.7-.4,1.1-.2.3-.3.7-.5,1l-.5,1a8.8,8.8,0,0,0-.6,1,5.5,5.5,0,0,1-.7.9c-.3.3-.5.6-.8.9l-.8.8-.9.7-.9.7c-.6.4-1.3.8-2,1.2a9.494,9.494,0,0,1-2.1.9h-.7c-.2,0-.5.1-.7.1-.5.1-.9.3-1.3.4a15.079,15.079,0,0,0-2.6,1.2c-1.7.9-3.3,1.8-4.9,2.8h0L66,226.3c-.9.6-1.7,1.3-2.6,1.8l-5.3,3.5L52.8,235c-.9.6-1.8,1.1-2.6,1.7l-2.6,1.8c-1.7,1.2-3.5,2.4-5.2,3.7L37.3,246c-1.7,1.3-3.4,2.6-5,3.9l-5,3.9v-.1l-.5,1.8v.1l-.1-.1-1-.5c-.3-.2-.7-.3-1-.5l-1-.6-.5-.3-.4-.3-.9-.7-.8-.8a5.5,5.5,0,0,1-.7-.9c-.2-.3-.5-.6-.7-.9a8.8,8.8,0,0,1-.6-1l-.5-1a7.945,7.945,0,0,1-.6-2.2,16.352,16.352,0,0,1-.2-2.2,8.2,8.2,0,0,1,.2-2.2h.1a2.994,2.994,0,0,0,.8-.4,1.794,1.794,0,0,0,.7-.5,7.551,7.551,0,0,0,1.4-1.1c.9-.7,1.8-1.5,2.7-2.3,1.8-1.6,3.5-3.2,5.2-4.9h0l4-4.7,2-2.3,2.1-2.3c1.4-1.5,2.7-3,4.2-4.5,1.4-1.5,2.8-3,4.3-4.4.8-.7,1.6-1.3,2.4-1.9l1.2-1a14.626,14.626,0,0,1,1.3-.9l2.6-1.7,2.7-1.5c.9-.5,1.8-.9,2.7-1.3l1.4-.6,1.4-.6,1.4-.6,1.4-.5c1-.3,1.9-.6,2.9-.9h0a8.8,8.8,0,0,0,.6-1l.5-1,.9-2.1C69.4,197.3,69.9,195.9,70.4,194.4Z"/>
    </g>
    <path id="Path_13" data-name="Path 13" class="cls-9" d="M11.6,268a117.274,117.274,0,0,0-6.1-25.5h0a13.354,13.354,0,0,0-1.8.7s-3.8.3-3.6,4.1c0,0,.3,10.1,5.8,17a13.375,13.375,0,0,1,1.5,7.6s2.8,18,14.2,18.5C13.3,284.8,11.6,268,11.6,268Z"/>
    <path id="Path_14" data-name="Path 14" class="cls-10" d="M27.9,263.6h0c.2-.6.4-1.1.6-1.6,0,0,4.3-7.1-1.8-6.3-10.7-4.3-8.6-14-8.6-14a24.506,24.506,0,0,0-12.7.8A116.594,116.594,0,0,1,10.5,262h0S20.5,265.7,27.9,263.6Z"/>
    <path id="Path_15" data-name="Path 15" class="cls-5" d="M11.6,268s10.8,3.1,14.6,1.2l-.8,3.4s-5,1.3-13.3-.8Z"/>
    <path id="Path_16" data-name="Path 16" class="cls-5" d="M21.7,290.3s4.1.5,2-7.1c0,0,.2-2.5.8-6h0a44.016,44.016,0,0,1-10.1,2.7h0C16,284,18.3,288.1,21.7,290.3Z"/>
    <path id="Path_17" data-name="Path 17" class="cls-3" d="M15.1,241.2s-4,6.9-2.9,11.5c0,0,13,2.8,11.9,11.5A33.347,33.347,0,0,1,10.6,262s-3.3-15.6-5.1-19.5C5.5,242.5,12.1,240.8,15.1,241.2Z"/>
    <path id="Path_18" data-name="Path 18" class="cls-8" d="M144,29.5s-1.8-4.1-1.4-6.5c0,0,.6-2,.8-3a14.947,14.947,0,0,0-3.2-10s-6.7-4.3-11.3-3.2c0,0,.5,7.3-1.5,10.5,0,0-3.9.8-2.5,3.6l-1.2,2.3s-2-4-3.7-2.1c0,0,.2-1.5-1.5-1.3,0,0-5.3-3.1-5.3,5.7,0,0,2.6,6.7-1.8,11.4,0,0,0,3.9-2.1,5.8,0,0,7.9,12.5,16.3,13.3a2.5,2.5,0,0,0,2.7-1.5L124,36.9c2.8,5.9,10.2,7.7,13.5,8.3a4.515,4.515,0,0,0,1.4-5.4s2.4-.6.9-2a3.459,3.459,0,0,1-1.9-2s2,1.3,3.4.5a19.841,19.841,0,0,0,.1-2.8l2.3-.4C143.6,33.1,145.6,32.6,144,29.5Z"/>
    <path id="Path_19" data-name="Path 19" class="cls-5" d="M173.9,281.1h0c-3.5.1-7.2-.2-9.7-1.7-6.9,6.6-6.6,16.5-6.6,16.5a107.077,107.077,0,0,0,16.9-5.2h0C173.2,288.7,173.9,281.1,173.9,281.1Z"/>
    <path id="Path_20" data-name="Path 20" class="cls-11" d="M142.5,109.4s4.6,2.5,7.4,1.3a29.365,29.365,0,0,0,3.4-1c1.6-.7,2.9-1.7,1.2-3.1,0,0,1.5-2,.8-3.4,0,0,3.4-1.9-.6-4.6,0,0,1.9-2.7-.6-3.4,0,0-4.2,1.5-4.9-.2,0,0,4.4-4.4,1.1-5.3,0,0-8.9,4.9-9.1,9.5a22.1,22.1,0,0,1-8.4-3.4s-4.5,12.3-5.7,15.1C127,111,139.7,111,142.5,109.4Z"/>
    <path id="Path_21" data-name="Path 21" class="cls-2" d="M94.9,73a3.125,3.125,0,0,1-.7.2,3.091,3.091,0,0,0-.8.2c-.3.1-.6.1-1,.2s-.8.1-1.2.2-.9.1-1.3.2a7.006,7.006,0,0,0-1.4.3,5.732,5.732,0,0,0-1.4.4c-.5.1-.9.3-1.4.4s-.9.3-1.4.4c-.9.3-1.7.5-2.4.7-1.4.4-2.4.7-2.4.7h0s.9-.4,2.3-.9c.3-.1.7-.3,1.1-.4a9.287,9.287,0,0,0,1.3-.4c.4-.1.9-.2,1.4-.3s1-.2,1.4-.3c.5-.1,1-.2,1.4-.3.5-.1.9-.2,1.4-.3s.9-.2,1.3-.3a5.019,5.019,0,0,1,1.2-.2,9.675,9.675,0,0,1,2.6-.5Z"/>
    <g id="Group_7" data-name="Group 7">
      <path id="Path_22" data-name="Path 22" class="cls-12" d="M117.4,152.9l1-6.9c.1-.6-10.2-5.2-11.3-5.5a32.888,32.888,0,0,0-12.1-.8s-12.6-1-19.6-5.6a2.186,2.186,0,0,1-.3.5s-6.9,9.4,3.6,25.6c3.3,3.3,39,45.7,41.3,43.7,0,0,14-9.2,19.3-13.5l.8-1.3C139.9,189.1,123.7,162.1,117.4,152.9Z"/>
      <g id="Group_6" data-name="Group 6">
        <path id="Path_23" data-name="Path 23" class="cls-7" d="M117.5,152.9c.4-2.4,1.8-5.8.2-7.6-2-2.2-7.8-4-10.5-4.9-4.7-1.4-9.3-.6-14-1A41.065,41.065,0,0,1,75.5,134a.367.367,0,0,0-.3.1C65.6,149,82,164.3,91,174.6c6.3,7.2,12.6,14.4,19.2,21.3,1.9,2,6.4,8.3,9.6,8.2,2.1-.1,6.2-4.1,7.8-5.2,3.9-2.7,10-5.5,12.5-9.7h0c-7.3-12.3-14.6-24.6-22.6-36.3,0-.1-.3.1-.3.1,4.8,7,9.2,14.3,13.7,21.6,2,3.2,3.9,6.4,5.9,9.6.6,1,3.1,3.8,3,5-.1,2.5-6.7,5.7-8.4,6.9-3.2,2.2-7,5.8-10.7,7.2-2.9,1.1-6.2-3.5-8.2-5.5-10.2-10.4-19.7-21.6-29.3-32.6-4.6-5.2-8.4-10.3-9.8-17.5a20.009,20.009,0,0,1,.7-11.1c1.3-3.3,2.5-1.5,5.6-.3a46.98,46.98,0,0,0,13.2,3.1c4.8.5,9.6-.4,14.3,1.1,3,.9,7.6,2.5,9.9,4.6,1.9,1.7.5,5.1.1,7.7C117.2,153,117.5,152.9,117.5,152.9Z"/>
      </g>
    </g>
    <g id="Group_8" data-name="Group 8">
      <path id="Path_24" data-name="Path 24" class="cls-13" d="M154.4,275.1s-4.6-10.7-5.6-17.8c0,0-3-28.2-5.6-40.3a16.985,16.985,0,0,1,2-8.4s4.3-5.8-6.1-18.3c-5.3,4.3-19.3,13.5-19.3,13.5,2.7,2.7,4.7,4.9,4.9,5.8a15.919,15.919,0,0,1-.3,7.9,70.316,70.316,0,0,0-.3,14.5c.7,8.9,5,16.9,8.2,25.1,2.6,6.9,5.2,13.8,7.5,20.8.7,2.1,1.9,4.6,1.9,6.9,0,0-.2.7-.4,1.8h0C144.6,286.6,154.4,275.1,154.4,275.1Z"/>
      <path id="Path_25" data-name="Path 25" class="cls-7" d="M154.4,275.1c-.5-1.1-.9-2.3-1.4-3.4-.4-1.2-.9-2.3-1.3-3.5s-.8-2.3-1.2-3.5-.7-2.4-1-3.6c-.4-1.2-.5-2.4-.8-3.6l-.4-3.7-.9-7.4-.4-3.7c-.1-1.2-.3-2.5-.5-3.7l-1-7.4c-.2-1.2-.3-2.5-.5-3.7l-.6-3.7-1.3-7.3h0a16.2,16.2,0,0,1,.1-2.2,4.253,4.253,0,0,1,.2-1.1c.1-.4.1-.7.2-1.1s.2-.7.3-1.1l.4-1c.1-.3.3-.7.4-1l.5-1h0a3.7,3.7,0,0,0,.5-1.1l.3-1.2c0-.4.1-.8.1-1.3a6.151,6.151,0,0,0-.1-1.3,5.02,5.02,0,0,0-.2-1.2l-.3-1.2a5.638,5.638,0,0,0-.4-1.2l-.5-1.2a11.732,11.732,0,0,0-.5-1.1,10.906,10.906,0,0,0-.6-1.1l-.7-1.1a6.726,6.726,0,0,0-.7-1.1l-.7-1c-.2-.3-.5-.7-.7-1l-1.6-2h.1l-4.7,3.5c-.8.6-1.6,1.1-2.4,1.7l-2.4,1.7c-1.6,1.1-3.2,2.2-4.9,3.3-1.6,1.1-3.3,2.2-4.9,3.3v-.2c.9.9,1.8,1.8,2.7,2.8.4.5.9,1,1.3,1.5.2.3.4.5.6.8a3.552,3.552,0,0,1,.4.9c.1.6.2,1.3.3,1.9a3.4,3.4,0,0,0,.1,1v2l-.1,1c-.1.7-.3,1.3-.4,1.9h0c-.1,1.5-.4,2.9-.4,4.4a32.33,32.33,0,0,0-.1,4.4v2.2l.1,2.2a32.931,32.931,0,0,0,.5,4.4c.1.7.3,1.4.4,2.1.2.7.3,1.4.5,2.1l.6,2.1c.2.7.5,1.4.7,2.1.5,1.4,1,2.7,1.6,4.1l1.7,4.1c.6,1.4,1.1,2.7,1.7,4.1s1,2.7,1.5,4.1l3,8.3,3,8.3,1.5,4.1a12.713,12.713,0,0,1,.9,4.3h0l-.4,1.8h0a3.861,3.861,0,0,0,2-.8,20.277,20.277,0,0,0,1.8-1.3c1.1-.9,2.2-1.9,3.3-2.9C150.5,279.5,152.5,277.3,154.4,275.1Zm0,0c-1.9,2.2-3.9,4.4-6,6.4-1.1,1-2.1,2-3.3,2.9a20.277,20.277,0,0,1-1.8,1.3,4.958,4.958,0,0,1-2,.8h0l.4-1.8h0a12.843,12.843,0,0,0-1-4.3l-1.5-4.1-3-8.3-3-8.3c-.5-1.4-1-2.8-1.5-4.1-.5-1.4-1.1-2.7-1.7-4.1l-1.7-4.1c-.5-1.4-1.1-2.7-1.6-4.1-.2-.7-.5-1.4-.7-2.1l-.6-2.1a15.985,15.985,0,0,1-.5-2.1,22.5,22.5,0,0,0-.5-2.2c-.2-1.4-.4-2.9-.5-4.4l-.1-2.2V226c0-1.5.1-2.9.1-4.4.1-1.5.3-2.9.4-4.4h0a10.622,10.622,0,0,0,.4-1.9l.1-1v-2a3.751,3.751,0,0,0-.1-1,12.5,12.5,0,0,0-.3-1.9,2.01,2.01,0,0,0-.4-.8c-.2-.3-.4-.5-.6-.8a17.383,17.383,0,0,0-1.3-1.5c-.9-1-1.8-1.9-2.7-2.8l-.1-.1.1-.1,4.9-3.3c1.6-1.1,3.3-2.2,4.9-3.3l2.4-1.7c.8-.6,1.6-1.1,2.4-1.7l4.7-3.5.1-.1.1.1,1.6,2a6.07,6.07,0,0,1,.7,1l.7,1a4.129,4.129,0,0,1,.7,1.1l.7,1.1a10.906,10.906,0,0,0,.6,1.1,9.745,9.745,0,0,1,.5,1.1l.5,1.2c.1.4.3.8.4,1.2l.3,1.2a5.066,5.066,0,0,1,.2,1.3,5.283,5.283,0,0,1,.1,1.3,5.7,5.7,0,0,1-.1,1.3,7.9,7.9,0,0,1-.3,1.3,6.118,6.118,0,0,1-.5,1.2h0l-.5,1a4.179,4.179,0,0,0-.4,1l-.4,1c-.1.3-.2.7-.3,1a3.6,3.6,0,0,0-.2,1.1c-.1.4-.1.7-.2,1.1a15.482,15.482,0,0,0-.1,2.2h0l1.2,7.3.6,3.7c.2,1.2.3,2.5.5,3.7l1,7.4c.2,1.2.3,2.5.5,3.7l.4,3.7.9,7.4.4,3.7c.3,1.2.4,2.4.7,3.6s.6,2.4,1,3.6a20.632,20.632,0,0,0,1.2,3.5c.4,1.2.8,2.3,1.3,3.5A24.579,24.579,0,0,1,154.4,275.1Z"/>
    </g>
    <path id="Path_26" data-name="Path 26" class="cls-9" d="M142.9,305.6s1.9,2.3,11.5-1.5c0,0,35.8-12.4,35.3-19.3a5.4,5.4,0,0,0-2-4c-4.3,10-30,15.2-30,15.2-8.6,6.1-15.4,4.6-15.4,4.6h0A9.07,9.07,0,0,0,142.9,305.6Z"/>
    <path id="Path_27" data-name="Path 27" class="cls-5" d="M168,280.8s-6.2,6.4-6.2,14.2l3.7-1s1.2-9.6,5.5-12.8Z"/>
    <path id="Path_28" data-name="Path 28" class="cls-3" d="M164.3,279.4a4.233,4.233,0,0,1-.7-.5,13.541,13.541,0,0,0-1.9-1.7c-8.7,4.1-14.9,16.3-14.9,16.3-3.2.1-5.8-2.7-5.9-2.8a13.13,13.13,0,0,0,2,7.2,13.716,13.716,0,0,0-.6,2.6s6.8,1.5,15.4-4.6C157.7,295.9,157.4,286,164.3,279.4Z"/>
    <path id="Path_29" data-name="Path 29" class="cls-10" d="M146.8,293.5s6.1-12.2,14.9-16.3a9.17,9.17,0,0,0-7.3-2.1s-9.8,11.4-13.1,11.4a22.983,22.983,0,0,0-.4,4.2C141,290.8,143.5,293.6,146.8,293.5Z"/>
    <path id="Path_30" data-name="Path 30" class="cls-14" d="M151.6,95.9a4.573,4.573,0,0,0-1.5,1.6c-.1.2-.1.3-.2.5v.5a1.38,1.38,0,0,0,.3.4c.1.1.3.2.4.3l.2.2-.3.1a3.128,3.128,0,0,0-1,.5,2.7,2.7,0,0,0-.8.7,1.02,1.02,0,0,0,.2.9,2.7,2.7,0,0,0,.8.7l.1.1-.1.2a4.657,4.657,0,0,0-.6,2,1.8,1.8,0,0,0,.2,1c.1.1.2.3.3.4s.3.2.4.3l.1.1v.1a1.268,1.268,0,0,0-.1.6c0,.2.1.4.1.6a2.186,2.186,0,0,0,.3.5c.1.2.3.3.4.5s.3.2.5.4a2.186,2.186,0,0,1,.5.3l1.2.5-1.2-.4-.6-.3-.6-.3-.5-.5-.3-.6c0-.2-.1-.4-.1-.7a1.7,1.7,0,0,1,.1-.7l.1.2a2.186,2.186,0,0,1-.5-.3,1,1,0,0,1-.4-.5,2.537,2.537,0,0,1-.2-1.2,5.549,5.549,0,0,1,.6-2.2l.1.3a3.45,3.45,0,0,1-.9-.8l-.3-.6a.878.878,0,0,1,.1-.7,2.581,2.581,0,0,1,.9-.9c.4-.2.7-.3,1.1-.5v.3a1.756,1.756,0,0,1-.5-.4,2.186,2.186,0,0,1-.3-.5.637.637,0,0,1,0-.6c.1-.2.1-.4.2-.5A6.479,6.479,0,0,1,151.6,95.9Z"/>
    <path id="Path_31" data-name="Path 31" class="cls-14" d="M141.8,108.2s-.2-.5-.4-1.2l-.3-1.2a7.006,7.006,0,0,1-.3-1.4c-.1-.5-.1-1-.2-1.5a5.633,5.633,0,0,1,0-1.3,6.76,6.76,0,0,1,.1-1.2v.3c0,.2.1.5.1.9,0,.7.2,1.7.3,2.7,0,.5.2,1,.2,1.4a6.881,6.881,0,0,1,.2,1.3C141.7,107.7,141.8,108.2,141.8,108.2Z"/>
    <path id="Path_32" data-name="Path 32" class="cls-15" d="M147.4,98a4.2,4.2,0,0,0,.2-.5,4.672,4.672,0,0,1,.5-1,7.051,7.051,0,0,1,.7-.9l.4-.4a4.2,4.2,0,0,0-.2.5,4.672,4.672,0,0,1-.5,1,7.051,7.051,0,0,1-.7.9A1.2,1.2,0,0,0,147.4,98Z"/>
    <path id="Path_33" data-name="Path 33" class="cls-15" d="M124,36.9l4.2,17.6a6.38,6.38,0,0,0,.6-2.3s-.6-5.7,6.3-5.9a8.531,8.531,0,0,0,2.5-1.1C134.2,44.6,126.8,42.7,124,36.9Z"/>
    <path id="Path_34" data-name="Path 34" class="cls-7" d="M113.5,25.4a4.471,4.471,0,0,1,2.1-5.3c2.2-1.5,5.1.3,3.6,3.1a39.747,39.747,0,0,1,4.1,4l2.6-2.2c-1.3-2.9,3-9.2,3-9.2,1.3-2.1,0-8.9,0-8.9,4.6-1.1,11.3,3.2,11.3,3.2s4.9-2.5,0-6.6c0,0-15.9-7.6-25.9,0,0,0-15.7,10.7-8.6,23.3,0,0,3.4,5.8,5.6,10.1a9.3,9.3,0,0,0,3.3-6.1C114.7,28.9,113.9,27.1,113.5,25.4Z"/>
    <path id="Path_35" data-name="Path 35" class="cls-16" d="M123.1,33.8s.5,9.4,14,11.5"/>
    <path id="Path_36" data-name="Path 36" class="cls-17" d="M128.6,106.8s9.6,2.2,13,.2l.9,2.4s-5.4,2-15.5,1.5Z"/>
    <path id="Path_37" data-name="Path 37" class="cls-18" d="M79.3,136.3s-12.1,12.3,37.1,65.4c0,0-11-10.4-34.6-38.5,0,0-14-11-6.4-29.2Z"/>
    <path id="Path_38" data-name="Path 38" class="cls-19" d="M128.2,198.6s4.3,8,1.5,14.8c-1,2.6-.3,6.9-.3,9.6a99.962,99.962,0,0,0,3.7,24.3c2,7.1,4.7,14.1,7.4,21,1.2,3.2,3.4,12.1,7,13.5,0,0-2.6,3.7-6.2,4.7,0,0,1.7-2.5-1.8-9.7,0,0-6-18-8-22.6,0,0-11-19.5-6.3-38.1,0,0,.5-5.8-.8-7.8l-4.6-4.5Z"/>
    <path id="Path_39" data-name="Path 39" class="cls-20" d="M89.6,173.3s-11.8,20.3-16.3,22.6h0l-4.1-2s6.1-10.3,9.4-33.7C78.5,160.2,89.6,171.8,89.6,173.3Z"/>
    <path id="Path_40" data-name="Path 40" class="cls-4" d="M130.9,55.3s5.1,7.6,6.5,14.7C137.5,70,141.2,58.8,130.9,55.3Z"/>
    <path id="Path_41" data-name="Path 41" class="cls-4" d="M59.4,76.9c-2.7-1.8,6.5-.6,9.7-1.2,4.6-.8,9-2.8,13.6-3.5,2.4-.4,9.2-1.4,10.8,1.1,0,0-11.7,2.2-16.4,4,0,0-10.3,4.6-14.2,4.5C62.9,81.8,60.6,77.7,59.4,76.9Z"/>
    <path id="Path_42" data-name="Path 42" class="cls-2" d="M108.1,44.3s9,18.3,21.3,13.3C129.4,57.5,118.4,64.6,108.1,44.3Z"/>
    <path id="Path_43" data-name="Path 43" class="cls-21" d="M79,125.5s6.5,12,11.8,9.5c0,0,3.6.4,5.3-.9,0,0,3.7,1.3,5-1.8,0,0,4.8,1.5,3.2-4.2,0,0-6.3-5.7-6.9-6.7,0,0,5.8,1.4,7.3-.6l-12.8-3.3L79.7,123Z"/>
    <path id="Path_44" data-name="Path 44" class="cls-4" d="M56.2,73.3S68,64,73,61.8c0,0,14.8-7.5,19.8-11.8,0,0,.8-1.5-2.3-2.3,0,0-5.2.6-19.4,11.9,0,0-15.1,8.8-17.9,10.7C53.3,70.4,56.2,72.8,56.2,73.3Z"/>
    <path id="Path_45" data-name="Path 45" class="cls-4" d="M93.6,48a29.441,29.441,0,0,1,14.5-3.8s.8,1.3-3.5,2.3c0,0-6.4,1.2-7.5,2.5Z"/>
    <path id="Path_46" data-name="Path 46" class="cls-2" d="M95.1,48a5.865,5.865,0,0,1,1,.7A9.693,9.693,0,0,1,98.2,51a7.844,7.844,0,0,1,1.1,1.8,14.273,14.273,0,0,1,.8,2.2,18.664,18.664,0,0,1,.4,2.5,11.3,11.3,0,0,1,0,2.6,23,23,0,0,1-.3,2.6,16.818,16.818,0,0,1-.7,2.4c-.1.4-.3.8-.4,1.1-.2.4-.3.7-.5,1.1-.2.3-.3.7-.5,1s-.3.6-.5.9a9.739,9.739,0,0,1-1,1.5c-.3.4-.6.8-.8,1.1-.5.6-.7.9-.7.9h0a10.39,10.39,0,0,1,.6-1,6.348,6.348,0,0,0,.7-1.2l.9-1.5c.2-.3.3-.6.5-.9a9.292,9.292,0,0,0,.5-1c.2-.3.3-.7.5-1a4.875,4.875,0,0,0,.4-1.1,16.817,16.817,0,0,0,.7-2.4l.3-1.2a5.067,5.067,0,0,0,.2-1.3,11.3,11.3,0,0,0,0-2.6,9.3,9.3,0,0,0-.5-2.4A10.2,10.2,0,0,0,99,53a14.51,14.51,0,0,0-1-1.8,13.879,13.879,0,0,0-2-2.4c-.6-.5-1-.8-.9-.8Z"/>
    <path id="Path_47" data-name="Path 47" class="cls-22" d="M123.9,1.7s-14.8,3.5-18,18.3c0,0-.3,5.8,3.8,9.8,0,0,2.5,1,.5-5.5-.4-1.4,1.2-4.3,1.9-5.4C114.4,15.2,133.8,8.6,123.9,1.7Z"/>
    <path id="Path_48" data-name="Path 48" class="cls-15" d="M117.6,23s-2.5-2.5-3.3,1.3c0,0,.5,4.8,4,5C118.4,29.2,115.1,25.5,117.6,23Z"/>
    <path id="Path_49" data-name="Path 49" class="cls-15" d="M128.9,6.8s8.4,1.2,12.5,5.3a5.231,5.231,0,0,0-1.9-2.5C139.6,9.6,132.3,5.7,128.9,6.8Z"/>
    <path id="Path_50" data-name="Path 50" class="cls-23" d="M107.2,140.9s27.3,41.5,30.6,49c0,0-12.4,10.4-17.7,12.4,0,0-36.8-46.1-35.4-60.1l1-3s10,.7,13.7.7A18.484,18.484,0,0,1,107.2,140.9Z"/>
    <path id="Path_51" data-name="Path 51" class="cls-19" d="M52.2,73.3s-8,6.5-8,8.8c0,0,3.3,7.3,6.8,10.5,0,0-5.5-8.5-2.8-11.8C48.2,80.9,56,72.8,52.2,73.3Z"/>
    <path id="Path_52" data-name="Path 52" class="cls-19" d="M18.4,244c8-4.3,13.7-11.8,20.2-18,5.9-5.6,12.1-11.2,19-15.6,3.3-2.1,6.8-4.2,10.7-4.8,0,0,5.6-3.4,5.9-8.9l-3.5-2.3s-2.4,6.7-3.8,8.3c0,0-14.1,2.7-27.7,18.4,0,0-16.5,18.8-21.1,20.4Z"/>
    <path id="Path_53" data-name="Path 53" class="cls-6" d="M111.7,142.7s3.9,7.7,5.6,10.2l1-6.9C118.4,146,113.5,142.7,111.7,142.7Z"/>
    <path id="Path_54" data-name="Path 54" class="cls-24" d="M118,26.1a1.6,1.6,0,1,1-1.6-1.6A1.58,1.58,0,0,1,118,26.1Z"/>
    <path id="Path_55" data-name="Path 55" class="cls-25" d="M116.3,27.8"/>
    <g id="Group_9" data-name="Group 9" class="cls-26">
      <path id="Path_56" data-name="Path 56" class="cls-27" d="M97.6,140.7h-.5c.2-6.1,4.5-11.9,8.3-17,1-1.3,1.9-2.5,2.7-3.7l.3-.4a50.97,50.97,0,0,0,5.7-9.9,30.517,30.517,0,0,0,1.5-9.9c.1-1.5.1-3,.3-4.4a60.576,60.576,0,0,1,2.7-13.1c.6-1.8,1.4-3.7,2.2-5.8,3-7.6,6.5-16.2,2-23.1-5.2-8-6.4-26.2-6.4-26.4h.5c0,.2,1.3,18.3,6.4,26.1,4.6,7.1,1.1,15.8-2,23.6-.8,2-1.6,4-2.2,5.8a59.8,59.8,0,0,0-2.6,13c-.2,1.5-.2,2.9-.3,4.4-.2,3.3-.3,6.8-1.6,10a50.067,50.067,0,0,1-5.8,10l-.3.4c-.8,1.2-1.7,2.4-2.7,3.7C102.1,129,97.9,134.7,97.6,140.7Z"/>
    </g>
    <path id="Path_57" data-name="Path 57" class="cls-28" d="M116.3,26.1s1.2,18.2,6.6,26.2c5.9,8.8-1.4,20.4-4.3,29.1a63.917,63.917,0,0,0-2.7,13c-.5,4.8-.1,9.8-1.9,14.4a51.252,51.252,0,0,1-6.2,10.3C103.7,125,97,130.4,96.7,138"/>
    <path id="Path_58" data-name="Path 58" class="cls-28" d="M124.2,67.7S134.4,56,135,46.2"/>
    <path id="Path_59" data-name="Path 59" class="cls-24" d="M123.7,71.5c0,.1-.4.1-.8-.1h0c-.4-.1-.7-.3-.7-.5l1.5-4.2c0-.1.4-.1.8.1h0c.4.1.7.3.7.5Z"/>
    <path id="Path_60" data-name="Path 60" class="cls-24" d="M97.7,139.6c0,.1-.2.2-.5.2h0c-.3.1-.6.1-.6,0l-.5-2.2c0-.1.2-.2.5-.2h0c.3-.1.6-.1.6,0Z"/>
    <g id="Group_11" data-name="Group 11">
      <g id="Group_10" data-name="Group 10">
        <path id="Path_61" data-name="Path 61" class="cls-24" d="M106,155.3c1,3-1.6,3.5-4.6,4.5h0c-3,1-5.4,2.1-6.4-.9l-4.9-15c-1-3,1.6-3.5,4.6-4.5h0c3-1,5.4-2.1,6.4.9Z"/>
        <rect id="Rectangle_1" data-name="Rectangle 1" class="cls-29" width="9" height="16.2" transform="matrix(0.95, -0.313, 0.313, 0.95, 90.893, 142.528)"/>
        <path id="Path_62" data-name="Path 62" class="cls-30" d="M102.1,158.1a1.265,1.265,0,1,1-1.6-.8A1.164,1.164,0,0,1,102.1,158.1Z"/>
      </g>
      <path id="Path_63" data-name="Path 63" class="cls-29" d="M96.2,140c0,.1,0,.2-.1.2l-2.8,1c-.1,0-.2,0-.2-.1h0c0-.1,0-.2.1-.2l2.8-1c.1,0,.2,0,.2.1Z"/>
    </g>
    <path id="Path_64" data-name="Path 64" class="cls-20" d="M87.2,146.7s12.8-5.3,15.6-5.8c0,0,5,10.8,5,14.8-2.6,5.2-5.6,6.7-13.1,4.9C88.9,157.2,87.2,146.7,87.2,146.7Z"/>
    <g id="Group_13" data-name="Group 13">
      <g id="Group_12" data-name="Group 12">
        <path id="Path_65" data-name="Path 65" class="cls-13" d="M53.3,70.4S42.5,78,42.5,82.8c0,0,13.4,19.8,22.6,25.6,0,0,13.4,9.9,14.5,15.2,0,0,6.6,9.9,8.6,10.4,0,0,2.1,1.4,2.9-1.3a3.572,3.572,0,0,0,5.1.4s4.2,1.2,4.4-1.7c0,0,4.8,1,2.9-2.7,0,0-7.7-7.8-8.5-9.7a9.8,9.8,0,0,0,9.8,1.7s1.5-1.1,0-1.9c0,0-5.7-1.1-7-3.2a13.6,13.6,0,0,0-11.6-3.4c-5-4.4-10.6-8.4-14.7-13.7-3.8-5-4.8-11.3-8.3-16.5C63.1,82,56.9,72.3,53.3,70.4Z"/>
        <path id="Path_66" data-name="Path 66" class="cls-7" d="M53.3,70.4a46.917,46.917,0,0,0-6.4,5.4A29.152,29.152,0,0,0,44.1,79a7.584,7.584,0,0,0-1.6,3.8h0c2.6,3.8,5.4,7.5,8.3,11.1a100.552,100.552,0,0,0,9.3,10.3,28.482,28.482,0,0,0,2.6,2.3c.9.8,1.9,1.4,2.8,2.1,1.8,1.4,3.6,2.9,5.4,4.4,1.7,1.5,3.4,3.1,5,4.8a28.764,28.764,0,0,1,2.2,2.7,7.46,7.46,0,0,1,1.5,3.1h0c1.3,1.9,2.6,3.7,4,5.5.7.9,1.4,1.8,2.1,2.6l1.2,1.2.6.6a2.506,2.506,0,0,0,.7.4h0a1.914,1.914,0,0,0,1.8.2c.3-.1.5-.4.7-.6a3.552,3.552,0,0,0,.4-.9v-.1l.1.1a10.626,10.626,0,0,0,1.1.9,4.875,4.875,0,0,0,.7.3,1.7,1.7,0,0,0,.7.1,3.4,3.4,0,0,0,1.4-.2l.6-.3c.2-.1.4-.3.6-.4h0a8.222,8.222,0,0,0,2.7.2,2.725,2.725,0,0,0,1.2-.6,2.567,2.567,0,0,0,.5-1.2v-.1h.1a6.149,6.149,0,0,0,1.4.1,2.768,2.768,0,0,0,1.3-.3,1.255,1.255,0,0,0,.6-1.1,2.836,2.836,0,0,0-.4-1.3h0c-1.5-1.5-3-3.1-4.4-4.7l-2.1-2.4a14.7,14.7,0,0,1-1-1.3,6.706,6.706,0,0,1-.9-1.4l-.1-.2.2.1a8.259,8.259,0,0,0,2.2,1.4c.4.2.8.3,1.2.5.4.1.8.2,1.3.3.2,0,.4.1.6.1s.4.1.6,0h1.3a5.853,5.853,0,0,0,1.3-.2,1.421,1.421,0,0,0,.6-.2l.6-.2h0a1.834,1.834,0,0,0,.7-1c0-.2,0-.4-.2-.5a1,1,0,0,0-.5-.4h0a23.761,23.761,0,0,1-3.8-1.1,14.167,14.167,0,0,1-1.8-.8,3.738,3.738,0,0,1-1.5-1.3h0a11.382,11.382,0,0,0-2.5-1.8,9.143,9.143,0,0,0-1.4-.7,8.8,8.8,0,0,0-1.5-.5c-.2-.1-.5-.1-.8-.2s-.5-.1-.8-.2a7.772,7.772,0,0,0-1.6-.2,8.534,8.534,0,0,0-1.6,0,9.971,9.971,0,0,0-1.6.2h0c-3.4-3-7-5.7-10.2-8.8a35.68,35.68,0,0,1-4.5-5,26.246,26.246,0,0,1-3.3-5.9c-.9-2.1-1.7-4.2-2.6-6.2l-1.5-3c-.6-1-1.2-1.9-1.8-2.8-1.3-1.9-2.6-3.7-4-5.4a26.219,26.219,0,0,0-2.2-2.5C55.1,71.8,54.3,71,53.3,70.4Zm0,0a10.437,10.437,0,0,1,2.6,2.1c.8.8,1.5,1.7,2.2,2.5,1.4,1.8,2.7,3.6,4,5.4.6.9,1.3,1.9,1.8,2.8a20.987,20.987,0,0,1,1.5,3c.9,2,1.7,4.1,2.6,6.2a26.246,26.246,0,0,0,3.3,5.9,53.454,53.454,0,0,0,4.5,5c3.2,3.1,6.8,5.8,10.2,8.8h0c.5-.1,1-.1,1.6-.2h1.6a9.971,9.971,0,0,1,1.6.2,2.354,2.354,0,0,1,.8.2c.3.1.5.1.8.2a8.8,8.8,0,0,1,1.5.5,6.11,6.11,0,0,1,1.4.7,11.382,11.382,0,0,1,2.5,1.8h0a6.391,6.391,0,0,0,1.5,1.3,14.167,14.167,0,0,0,1.8.8,23.76,23.76,0,0,0,3.8,1.1h0a1,1,0,0,1,.5.4,1.421,1.421,0,0,1,.2.6,1.834,1.834,0,0,1-.7,1h0l-.6.2c-.2.1-.4.1-.6.2a5.853,5.853,0,0,1-1.3.2,2.854,2.854,0,0,1-1.3,0h-.7a1.952,1.952,0,0,1-.7-.1c-.4-.1-.9-.2-1.3-.3a6.117,6.117,0,0,1-1.2-.5A10.232,10.232,0,0,1,95,119h.1a6.014,6.014,0,0,0,.9,1.3,14.7,14.7,0,0,1,1,1.3l2.1,2.4c1.5,1.6,2.9,3.1,4.4,4.7h0a2.836,2.836,0,0,1,.4,1.3,1.141,1.141,0,0,1-.6,1.2,3.194,3.194,0,0,1-1.4.3,6.6,6.6,0,0,1-1.4-.1h.1a2.106,2.106,0,0,1-.5,1.3,1.563,1.563,0,0,1-1.2.6,4.922,4.922,0,0,1-2.7-.2h0c-.2.1-.4.3-.6.4a4.875,4.875,0,0,1-.7.3,3.178,3.178,0,0,1-1.4.2c-.2,0-.5-.1-.7-.1-.2-.1-.5-.2-.7-.3a3.126,3.126,0,0,1-1.1-.9h.1a3.552,3.552,0,0,1-.4.9,1.344,1.344,0,0,1-.7.6,1.914,1.914,0,0,1-1.8-.2h0a4.349,4.349,0,0,1-.7-.4l-.6-.6-1.2-1.2c-.7-.9-1.4-1.7-2.1-2.6-1.4-1.8-2.7-3.7-4-5.5h0a8.1,8.1,0,0,0-1.5-3.1c-.7-.9-1.4-1.8-2.2-2.7-1.6-1.7-3.3-3.3-5-4.8s-3.5-3-5.4-4.4c-.9-.7-1.9-1.3-2.8-2.1a28.48,28.48,0,0,1-2.6-2.3,91.188,91.188,0,0,1-9.2-10.4c-2.9-3.6-5.7-7.3-8.3-11.2h0a6.8,6.8,0,0,1,1.6-3.8A27.892,27.892,0,0,1,47,75.7,55.092,55.092,0,0,1,53.3,70.4Z"/>
      </g>
      <path id="Path_67" data-name="Path 67" class="cls-14" d="M100.5,131.4a9.873,9.873,0,0,1-1.2-.9,10.592,10.592,0,0,1-1.2-1l-.6-.6a4.35,4.35,0,0,0-.7-.6c-.4-.4-.9-.8-1.3-1.2a2.651,2.651,0,0,1-.5-.6c-.2-.2-.3-.4-.5-.5-.3-.3-.5-.6-.7-.8s-.2-.3-.2-.3l.3.3c.2.2.5.4.8.7a10.949,10.949,0,0,0,1.1,1c.4.4.9.8,1.3,1.2a24.859,24.859,0,0,1,2.3,2.3,4.371,4.371,0,0,1,.7.8C100.5,131.3,100.5,131.4,100.5,131.4Z"/>
      <path id="Path_68" data-name="Path 68" class="cls-14" d="M96.2,133.2s-.4-.3-.9-.7-1.1-1-1.7-1.6a23.2,23.2,0,0,1-1.6-1.8,5.671,5.671,0,0,1-.6-.9s.4.3.9.7,1.1,1,1.7,1.6a23.2,23.2,0,0,1,1.6,1.8C95.9,132.8,96.2,133.2,96.2,133.2Z"/>
      <path id="Path_69" data-name="Path 69" class="cls-14" d="M91,132.8a5.67,5.67,0,0,1-.9-.6,20.346,20.346,0,0,1-1.8-1.5c-.6-.6-1.2-1.2-1.6-1.7s-.7-.8-.7-.8a5.67,5.67,0,0,1,.9.6,20.346,20.346,0,0,1,1.8,1.5c.6.6,1.2,1.2,1.6,1.7A2.708,2.708,0,0,1,91,132.8Z"/>
      <path id="Path_70" data-name="Path 70" class="cls-17" d="M59.4,76.9c6,14,12,29.1,26.1,36.8,0,0,7.5-.3,10.8,3.3,0,0,4.8,3.4,8.4,1.9,0,0-5.9-1.3-7-3.2a14.739,14.739,0,0,0-11.6-3.4s-10.5-8.2-14.6-13.6a77.823,77.823,0,0,1-4.6-8.8c-1.2-2.8-2.2-5.6-4-8.1A25.084,25.084,0,0,0,59.4,76.9Z"/>
    </g>
  </g>
</svg>
